
<svg xmlns="http://www.w3.org/2000/svg" width="24" height="24" fill="currentColor" viewBox="0 0 24 24">
  <path d="M12 5c-2.103 0-4.01.832-5.621 2.209l1.44 1.44A6.942 6.942 0 0112 7c3.309 0 6.134 2.136 7.425 5-0.42 1.003-1.059 1.908-1.87 2.646l1.434 1.434A10.988 10.988 0 0022 12s-2.367-7-10-7zM2.293 2.293L1 3.586l3.086 3.086C2.636 8.135 2 10 2 10s2.367 7 10 7c1.964 0 3.739-.558 5.239-1.5l3.174 3.174 1.293-1.293L2.293 2.293zM12 17c-3.309 0-6.134-2.136-7.425-5a8.944 8.944 0 012.58-3.172l1.562 1.562A3.996 3.996 0 0012 15c.772 0 1.485-.219 2.094-.594l1.562 1.562A8.978 8.978 0 0112 17z"/>
</svg>
